<svg width="30" height="31" viewBox="0 0 30 31" fill="none" xmlns="http://www.w3.org/2000/svg">
<rect x="0.75" y="1.25" width="28.5" height="28.5" rx="14.25" fill="#141718"/>
<rect x="0.75" y="1.25" width="28.5" height="28.5" rx="14.25" stroke="white" stroke-width="1.5"/>
<path d="M11.2513 11.2226C11.0981 11.4524 11.1602 11.7628 11.39 11.916C11.6197 12.0692 11.9302 12.0071 12.0833 11.7774L11.2513 11.2226ZM12.6048 10.0937L13.0209 10.3711V10.3711L12.6048 10.0937ZM17.3965 10.0937L17.8125 9.81638L17.3965 10.0937ZM17.918 11.7774C18.0711 12.0071 18.3816 12.0692 18.6113 11.916C18.8411 11.7628 18.9032 11.4524 18.75 11.2226L17.918 11.7774ZM16.5007 16.5C16.5007 17.3284 15.8291 18 15.0007 18V19C16.3814 19 17.5007 17.8807 17.5007 16.5H16.5007ZM15.0007 18C14.1722 18 13.5007 17.3284 13.5007 16.5H12.5007C12.5007 17.8807 13.6199 19 15.0007 19V18ZM13.5007 16.5C13.5007 15.6716 14.1722 15 15.0007 15V14C13.6199 14 12.5007 15.1193 12.5007 16.5H13.5007ZM15.0007 15C15.8291 15 16.5007 15.6716 16.5007 16.5H17.5007C17.5007 15.1193 16.3814 14 15.0007 14V15ZM12.0833 11.7774L13.0209 10.3711L12.1888 9.81638L11.2513 11.2226L12.0833 11.7774ZM13.7142 10H16.2871V9H13.7142V10ZM16.9804 10.3711L17.918 11.7774L18.75 11.2226L17.8125 9.81638L16.9804 10.3711ZM16.2871 10C16.5657 10 16.8259 10.1393 16.9804 10.3711L17.8125 9.81638C17.4725 9.30635 16.9001 9 16.2871 9V10ZM13.0209 10.3711C13.1754 10.1393 13.4356 10 13.7142 10V9C13.1012 9 12.5288 9.30635 12.1888 9.81638L13.0209 10.3711ZM11.0007 12H19.0007V11H11.0007V12ZM21.1673 14.1667V18.8333H22.1673V14.1667H21.1673ZM19.0007 21H11.0007V22H19.0007V21ZM8.83398 18.8333V14.1667H7.83398V18.8333H8.83398ZM11.0007 21C9.80403 21 8.83398 20.03 8.83398 18.8333H7.83398C7.83398 20.5822 9.25175 22 11.0007 22V21ZM21.1673 18.8333C21.1673 20.03 20.1973 21 19.0007 21V22C20.7496 22 22.1673 20.5822 22.1673 18.8333H21.1673ZM19.0007 12C20.1973 12 21.1673 12.97 21.1673 14.1667H22.1673C22.1673 12.4178 20.7496 11 19.0007 11V12ZM11.0007 11C9.25175 11 7.83398 12.4178 7.83398 14.1667H8.83398C8.83398 12.97 9.80403 12 11.0007 12V11Z" fill="#FEFEFE"/>
</svg>
