<svg width="105" height="27" viewBox="0 0 105 27" fill="none" xmlns="http://www.w3.org/2000/svg">
<path d="M8.34844 2.528C9.46844 2.528 10.4284 2.728 11.2284 3.128C12.0284 3.512 12.6284 4.048 13.0284 4.736C13.4444 5.424 13.6524 6.192 13.6524 7.04C13.6524 8.112 13.3484 9.008 12.7404 9.728C12.1484 10.432 11.3084 10.856 10.2204 11V11.12C11.3884 11.456 12.3004 11.96 12.9564 12.632C13.6284 13.288 13.9644 14.2 13.9644 15.368C13.9644 16.792 13.4924 17.952 12.5484 18.848C11.6044 19.728 10.2524 20.168 8.49244 20.168C6.68444 20.168 5.22844 19.712 4.12444 18.8C3.02044 17.872 2.38844 16.504 2.22844 14.696H4.94044C5.03644 15.656 5.38044 16.424 5.97244 17C6.56444 17.56 7.36444 17.84 8.37244 17.84C9.31644 17.84 10.0364 17.592 10.5324 17.096C11.0444 16.6 11.3004 15.96 11.3004 15.176C11.3004 14.232 10.9324 13.512 10.1964 13.016C9.47644 12.52 8.42844 12.272 7.05244 12.272H6.40444V10.016H7.05244C9.66044 10.048 10.9644 9.16 10.9644 7.352C10.9644 6.568 10.7244 5.952 10.2444 5.504C9.76444 5.056 9.10844 4.832 8.27644 4.832C7.44444 4.832 6.74844 5.088 6.18844 5.6C5.62844 6.096 5.29244 6.824 5.18044 7.784H2.49244C2.60444 6.12 3.16444 4.832 4.17244 3.92C5.18044 2.992 6.57244 2.528 8.34844 2.528ZM19.7904 2.24V20H17.0544V2.24H19.7904ZM35.3893 12.752C35.3893 13.2 35.3573 13.592 35.2933 13.928H25.1173C25.1653 15.288 25.5413 16.296 26.2453 16.952C26.9493 17.608 27.8213 17.936 28.8613 17.936C29.7733 17.936 30.5413 17.704 31.1653 17.24C31.8053 16.776 32.1973 16.16 32.3413 15.392H35.2693C35.0933 16.32 34.7253 17.144 34.1653 17.864C33.6053 18.584 32.8773 19.152 31.9813 19.568C31.0853 19.968 30.0853 20.168 28.9813 20.168C27.7013 20.168 26.5653 19.896 25.5733 19.352C24.5973 18.808 23.8293 18.024 23.2693 17C22.7093 15.976 22.4293 14.768 22.4293 13.376C22.4293 12 22.7093 10.8 23.2693 9.776C23.8293 8.752 24.5973 7.968 25.5733 7.424C26.5653 6.88 27.7013 6.608 28.9813 6.608C30.2773 6.608 31.4053 6.88 32.3653 7.424C33.3413 7.952 34.0853 8.688 34.5973 9.632C35.1253 10.56 35.3893 11.6 35.3893 12.752ZM32.6293 12.68C32.6613 11.816 32.5093 11.096 32.1733 10.52C31.8533 9.928 31.4053 9.496 30.8293 9.224C30.2693 8.936 29.6533 8.792 28.9813 8.792C27.9093 8.792 27.0133 9.12 26.2933 9.776C25.5733 10.432 25.1813 11.4 25.1173 12.68H32.6293ZM43.335 6.608C44.535 6.608 45.559 6.904 46.407 7.496C47.255 8.088 47.855 8.872 48.207 9.848V6.776H50.943V20.144C50.943 21.376 50.687 22.464 50.175 23.408C49.679 24.368 48.959 25.12 48.015 25.664C47.071 26.208 45.951 26.48 44.655 26.48C42.799 26.48 41.295 26.04 40.143 25.16C39.007 24.28 38.295 23.088 38.007 21.584H40.719C40.943 22.368 41.375 22.976 42.015 23.408C42.655 23.856 43.471 24.08 44.463 24.08C45.551 24.08 46.447 23.744 47.151 23.072C47.855 22.4 48.207 21.424 48.207 20.144V16.928C47.855 17.904 47.255 18.688 46.407 19.28C45.559 19.872 44.535 20.168 43.335 20.168C42.183 20.168 41.151 19.896 40.239 19.352C39.343 18.808 38.639 18.024 38.127 17C37.615 15.976 37.359 14.768 37.359 13.376C37.359 12 37.615 10.8 38.127 9.776C38.639 8.752 39.343 7.968 40.239 7.424C41.151 6.88 42.183 6.608 43.335 6.608ZM44.175 9.008C42.959 9.008 41.983 9.4 41.247 10.184C40.527 10.952 40.167 12.016 40.167 13.376C40.167 14.736 40.527 15.808 41.247 16.592C41.983 17.36 42.959 17.744 44.175 17.744C44.943 17.744 45.631 17.568 46.239 17.216C46.847 16.848 47.327 16.336 47.679 15.68C48.031 15.024 48.207 14.256 48.207 13.376C48.207 12.512 48.031 11.752 47.679 11.096C47.327 10.424 46.847 9.912 46.239 9.56C45.631 9.192 44.943 9.008 44.175 9.008ZM59.5303 6.608C60.7303 6.608 61.7543 6.904 62.6023 7.496C63.4503 8.088 64.0503 8.872 64.4023 9.848V6.776H67.1383V20H64.4023V16.928C64.0503 17.904 63.4503 18.688 62.6023 19.28C61.7543 19.872 60.7303 20.168 59.5303 20.168C58.3783 20.168 57.3463 19.896 56.4343 19.352C55.5383 18.808 54.8343 18.024 54.3223 17C53.8103 15.976 53.5543 14.768 53.5543 13.376C53.5543 12 53.8103 10.8 54.3223 9.776C54.8343 8.752 55.5383 7.968 56.4343 7.424C57.3463 6.88 58.3783 6.608 59.5303 6.608ZM60.3703 9.008C59.1543 9.008 58.1783 9.4 57.4423 10.184C56.7223 10.952 56.3623 12.016 56.3623 13.376C56.3623 14.736 56.7223 15.808 57.4423 16.592C58.1783 17.36 59.1543 17.744 60.3703 17.744C61.1383 17.744 61.8263 17.568 62.4343 17.216C63.0423 16.848 63.5223 16.336 63.8743 15.68C64.2263 15.024 64.4023 14.256 64.4023 13.376C64.4023 12.512 64.2263 11.752 63.8743 11.096C63.5223 10.424 63.0423 9.912 62.4343 9.56C61.8263 9.192 61.1383 9.008 60.3703 9.008ZM77.8136 6.56C79.3496 6.56 80.5816 7.056 81.5096 8.048C82.4376 9.04 82.9016 10.456 82.9016 12.296V20H80.1656V12.584C80.1656 11.4 79.8616 10.488 79.2536 9.848C78.6456 9.192 77.8136 8.864 76.7576 8.864C75.6696 8.864 74.7976 9.216 74.1416 9.92C73.4856 10.608 73.1576 11.624 73.1576 12.968V20H70.4216V6.776H73.1576V9.68C73.5096 8.688 74.1016 7.92 74.9336 7.376C75.7656 6.832 76.7256 6.56 77.8136 6.56ZM92.7493 17.624V20H91.0693C89.6613 20 88.5893 19.664 87.8533 18.992C87.1333 18.304 86.7733 17.168 86.7733 15.584V9.104H84.8773V6.776H86.7733V3.488H89.5333V6.776H92.7253V9.104H89.5333V15.632C89.5333 16.384 89.6693 16.904 89.9413 17.192C90.2293 17.48 90.7253 17.624 91.4293 17.624H92.7493Z" fill="black"/>
<path d="M97.4723 16.976V20H94.3763V16.976H97.4723Z" fill="#6C7275"/>
</svg>
