<svg width="33" height="32" viewBox="0 0 33 32" fill="none" xmlns="http://www.w3.org/2000/svg">
<path d="M27.5013 16V24C27.5013 26.9455 25.1135 29.3333 22.168 29.3333H11.5013C8.55578 29.3333 6.16797 26.9455 6.16797 24V16" stroke="#141718" stroke-width="2.5" stroke-linejoin="round"/>
<path d="M23.1926 2.6665H10.4759C8.0528 2.6665 5.87378 4.32618 4.97385 6.85723L3.96321 9.69967C3.65728 10.5601 3.44581 11.4808 3.66895 12.3663C4.19741 14.4635 5.91191 15.9998 7.94537 15.9998C10.4 15.9998 12.3898 13.7613 12.3898 10.9998C12.3898 13.7613 14.3797 15.9998 16.8343 15.9998C19.2889 15.9998 21.2787 13.7613 21.2787 10.9998C21.2787 13.7613 23.2685 15.9998 25.7231 15.9998C27.7566 15.9998 29.4711 14.4635 29.9996 12.3663C30.2227 11.4808 30.0112 10.5601 29.7053 9.69967L28.6947 6.85723C27.7947 4.32618 25.6157 2.6665 23.1926 2.6665Z" stroke="#141718" stroke-width="2.5" stroke-linejoin="round"/>
<path d="M12.834 25.3335C12.834 23.1244 14.6248 21.3335 16.834 21.3335C19.0431 21.3335 20.834 23.1244 20.834 25.3335V29.3335H12.834V25.3335Z" stroke="#141718" stroke-width="2.5" stroke-linejoin="round"/>
</svg>
